<?xml version="1.0" encoding="UTF-8" standalone="no"?>
<!DOCTYPE svg PUBLIC "-//W3C//DTD SVG 1.1//EN"
 "http://www.w3.org/Graphics/SVG/1.1/DTD/svg11.dtd">
<!-- Generated by graphviz version 2.43.0 (0)
 -->
<!-- Title: graphname Pages: 1 -->
<svg width="784pt" height="917pt"
 viewBox="0.00 0.00 784.00 917.00" xmlns="http://www.w3.org/2000/svg" xmlns:xlink="http://www.w3.org/1999/xlink">
<g id="graph0" class="graph" transform="scale(1 1) rotate(0) translate(4 913)">
<title>graphname</title>
<polygon fill="white" stroke="transparent" points="-4,4 -4,-913 780,-913 780,4 -4,4"/>
<g id="clust2" class="cluster">
<title>cluster_1</title>
<polygon fill="none" stroke="black" points="8,-8 8,-901 768,-901 768,-8 8,-8"/>
<text text-anchor="middle" x="388" y="-885.8" font-family="Times,serif" font-size="14.00">src</text>
</g>
<g id="clust3" class="cluster">
<title>cluster_2</title>
<polygon fill="none" stroke="black" points="16,-454 16,-679 152,-679 152,-454 16,-454"/>
<text text-anchor="middle" x="84" y="-663.8" font-family="Times,serif" font-size="14.00">dataset</text>
</g>
<g id="clust4" class="cluster">
<title>cluster_3</title>
<polygon fill="none" stroke="black" points="160,-16 160,-530 672,-530 672,-16 160,-16"/>
<text text-anchor="middle" x="416" y="-514.8" font-family="Times,serif" font-size="14.00">spreadsheet</text>
</g>
<!-- src/index.tsx -->
<g id="node1" class="node">
<title>src/index.tsx</title>
<polygon fill="orange" stroke="black" points="206,-833.5 206,-869.5 288,-869.5 288,-833.5 206,-833.5"/>
<text text-anchor="middle" x="247" y="-847.8" font-family="Times,serif" font-size="14.00">index.tsx</text>
</g>
<!-- src/reportWebVitals.ts -->
<g id="node2" class="node">
<title>src/reportWebVitals.ts</title>
<polygon fill="none" stroke="black" points="16.5,-760.5 16.5,-796.5 167.5,-796.5 167.5,-760.5 16.5,-760.5"/>
<text text-anchor="middle" x="92" y="-774.8" font-family="Times,serif" font-size="14.00">reportWebVitals.ts</text>
</g>
<!-- src/index.tsx&#45;&gt;src/reportWebVitals.ts -->
<g id="edge1" class="edge">
<title>src/index.tsx&#45;&gt;src/reportWebVitals.ts</title>
<path fill="none" stroke="orange" d="M209.87,-833.49C188.46,-823.69 161.35,-811.27 138.52,-800.81"/>
<polygon fill="orange" stroke="orange" points="139.91,-797.6 129.36,-796.61 136.99,-803.96 139.91,-797.6"/>
</g>
<!-- src/mui_theme.tsx -->
<g id="node3" class="node">
<title>src/mui_theme.tsx</title>
<polygon fill="none" stroke="black" points="186,-760.5 186,-796.5 308,-796.5 308,-760.5 186,-760.5"/>
<text text-anchor="middle" x="247" y="-774.8" font-family="Times,serif" font-size="14.00">mui_theme.tsx</text>
</g>
<!-- src/index.tsx&#45;&gt;src/mui_theme.tsx -->
<g id="edge2" class="edge">
<title>src/index.tsx&#45;&gt;src/mui_theme.tsx</title>
<path fill="none" stroke="orange" d="M247,-833.31C247,-825.29 247,-815.55 247,-806.57"/>
<polygon fill="orange" stroke="orange" points="250.5,-806.53 247,-796.53 243.5,-806.53 250.5,-806.53"/>
</g>
<!-- src/router.tsx -->
<g id="node4" class="node">
<title>src/router.tsx</title>
<polygon fill="none" stroke="black" points="326,-760.5 326,-796.5 412,-796.5 412,-760.5 326,-760.5"/>
<text text-anchor="middle" x="369" y="-774.8" font-family="Times,serif" font-size="14.00">router.tsx</text>
</g>
<!-- src/index.tsx&#45;&gt;src/router.tsx -->
<g id="edge3" class="edge">
<title>src/index.tsx&#45;&gt;src/router.tsx</title>
<path fill="none" stroke="orange" d="M276.22,-833.49C292.55,-823.99 313.09,-812.04 330.69,-801.79"/>
<polygon fill="orange" stroke="orange" points="332.71,-804.67 339.59,-796.61 329.19,-798.62 332.71,-804.67"/>
</g>
<!-- src/App.tsx -->
<g id="node5" class="node">
<title>src/App.tsx</title>
<polygon fill="none" stroke="black" points="217.5,-687.5 217.5,-723.5 288.5,-723.5 288.5,-687.5 217.5,-687.5"/>
<text text-anchor="middle" x="253" y="-701.8" font-family="Times,serif" font-size="14.00">App.tsx</text>
</g>
<!-- src/router.tsx&#45;&gt;src/App.tsx -->
<g id="edge4" class="edge">
<title>src/router.tsx&#45;&gt;src/App.tsx</title>
<path fill="none" stroke="#512a0c" d="M341.22,-760.49C325.83,-751.08 306.52,-739.26 289.88,-729.07"/>
<polygon fill="#512a0c" stroke="#512a0c" points="291.32,-725.85 280.96,-723.61 287.66,-731.82 291.32,-725.85"/>
</g>
<!-- src/TablePage.tsx -->
<g id="node6" class="node">
<title>src/TablePage.tsx</title>
<polygon fill="none" stroke="black" points="310,-611.5 310,-647.5 426,-647.5 426,-611.5 310,-611.5"/>
<text text-anchor="middle" x="368" y="-625.8" font-family="Times,serif" font-size="14.00">TablePage.tsx</text>
</g>
<!-- src/router.tsx&#45;&gt;src/TablePage.tsx -->
<g id="edge5" class="edge">
<title>src/router.tsx&#45;&gt;src/TablePage.tsx</title>
<path fill="none" stroke="#512a0c" d="M368.88,-760.35C368.71,-735.12 368.39,-687.76 368.19,-657.74"/>
<polygon fill="#512a0c" stroke="#512a0c" points="371.68,-657.52 368.12,-647.54 364.68,-657.56 371.68,-657.52"/>
</g>
<!-- src/state.ts -->
<g id="node7" class="node">
<title>src/state.ts</title>
<polygon fill="none" stroke="black" points="244.5,-538.5 244.5,-574.5 315.5,-574.5 315.5,-538.5 244.5,-538.5"/>
<text text-anchor="middle" x="280" y="-552.8" font-family="Times,serif" font-size="14.00">state.ts</text>
</g>
<!-- src/App.tsx&#45;&gt;src/state.ts -->
<g id="edge6" class="edge">
<title>src/App.tsx&#45;&gt;src/state.ts</title>
<path fill="none" stroke="#9674cb" d="M274.83,-687.29C276.92,-684.74 278.72,-681.96 280,-679 293,-648.83 290.19,-610.4 285.98,-584.92"/>
<polygon fill="#9674cb" stroke="#9674cb" points="289.38,-584.07 284.14,-574.86 282.5,-585.33 289.38,-584.07"/>
</g>
<!-- src/dataset/index.ts -->
<g id="node8" class="node">
<title>src/dataset/index.ts</title>
<polygon fill="none" stroke="black" points="63,-611.5 63,-647.5 137,-647.5 137,-611.5 63,-611.5"/>
<text text-anchor="middle" x="100" y="-625.8" font-family="Times,serif" font-size="14.00">index.ts</text>
</g>
<!-- src/App.tsx&#45;&gt;src/dataset/index.ts -->
<g id="edge7" class="edge">
<title>src/App.tsx&#45;&gt;src/dataset/index.ts</title>
<path fill="none" stroke="#9674cb" d="M217.26,-702.2C194.11,-699.36 164.09,-693.04 141,-679 131.53,-673.24 123.18,-664.53 116.53,-656.07"/>
<polygon fill="#9674cb" stroke="#9674cb" points="119.2,-653.8 110.46,-647.82 113.56,-657.95 119.2,-653.8"/>
</g>
<!-- src/DataView.tsx -->
<g id="node9" class="node">
<title>src/DataView.tsx</title>
<polygon fill="none" stroke="black" points="161,-611.5 161,-647.5 271,-647.5 271,-611.5 161,-611.5"/>
<text text-anchor="middle" x="216" y="-625.8" font-family="Times,serif" font-size="14.00">DataView.tsx</text>
</g>
<!-- src/App.tsx&#45;&gt;src/DataView.tsx -->
<g id="edge8" class="edge">
<title>src/App.tsx&#45;&gt;src/DataView.tsx</title>
<path fill="none" stroke="#9674cb" d="M244.42,-687.34C239.89,-678.28 234.23,-666.97 229.16,-656.82"/>
<polygon fill="#9674cb" stroke="#9674cb" points="232.14,-654.95 224.54,-647.57 225.88,-658.08 232.14,-654.95"/>
</g>
<!-- src/TablePage.tsx&#45;&gt;src/state.ts -->
<g id="edge44" class="edge">
<title>src/TablePage.tsx&#45;&gt;src/state.ts</title>
<path fill="none" stroke="#de4fc1" d="M346.7,-611.31C335.35,-602.16 321.22,-590.76 308.9,-580.82"/>
<polygon fill="#de4fc1" stroke="#de4fc1" points="311.09,-578.08 301.11,-574.53 306.69,-583.53 311.09,-578.08"/>
</g>
<!-- src/spreadsheet/index.ts -->
<g id="node10" class="node">
<title>src/spreadsheet/index.ts</title>
<polygon fill="none" stroke="black" points="179,-462.5 179,-498.5 253,-498.5 253,-462.5 179,-462.5"/>
<text text-anchor="middle" x="216" y="-476.8" font-family="Times,serif" font-size="14.00">index.ts</text>
</g>
<!-- src/TablePage.tsx&#45;&gt;src/spreadsheet/index.ts -->
<g id="edge42" class="edge">
<title>src/TablePage.tsx&#45;&gt;src/spreadsheet/index.ts</title>
<path fill="none" stroke="#de4fc1" d="M360.91,-611.34C350.45,-586.41 331.43,-542.61 325,-538 300.27,-520.26 283.81,-544.4 257,-530 246.99,-524.62 238.39,-515.71 231.7,-506.99"/>
<polygon fill="#de4fc1" stroke="#de4fc1" points="234.52,-504.92 225.87,-498.8 228.82,-508.98 234.52,-504.92"/>
</g>
<!-- src/SpreadSheetFilter.tsx -->
<g id="node23" class="node">
<title>src/SpreadSheetFilter.tsx</title>
<polygon fill="none" stroke="black" points="354.5,-538.5 354.5,-574.5 527.5,-574.5 527.5,-538.5 354.5,-538.5"/>
<text text-anchor="middle" x="441" y="-552.8" font-family="Times,serif" font-size="14.00">SpreadSheetFilter.tsx</text>
</g>
<!-- src/TablePage.tsx&#45;&gt;src/SpreadSheetFilter.tsx -->
<g id="edge43" class="edge">
<title>src/TablePage.tsx&#45;&gt;src/SpreadSheetFilter.tsx</title>
<path fill="none" stroke="#de4fc1" d="M385.67,-611.31C394.82,-602.42 406.14,-591.41 416.15,-581.67"/>
<polygon fill="#de4fc1" stroke="#de4fc1" points="418.76,-584.01 423.49,-574.53 413.88,-578.99 418.76,-584.01"/>
</g>
<!-- src/state.ts&#45;&gt;src/dataset/index.ts -->
<g id="edge9" class="edge">
<title>src/state.ts&#45;&gt;src/dataset/index.ts</title>
<path fill="none" stroke="#a967d0" d="M244.44,-570.78C218.58,-580.53 182.51,-594.31 146.67,-608.73"/>
<polygon fill="#a967d0" stroke="#a967d0" points="145.03,-605.61 137.07,-612.61 147.66,-612.1 145.03,-605.61"/>
</g>
<!-- src/state.ts&#45;&gt;src/spreadsheet/index.ts -->
<g id="edge10" class="edge">
<title>src/state.ts&#45;&gt;src/spreadsheet/index.ts</title>
<path fill="none" stroke="#a967d0" d="M264.34,-538.28C261.87,-535.53 259.35,-532.69 257,-530 250.4,-522.44 243.3,-514.12 236.9,-506.54"/>
<polygon fill="#a967d0" stroke="#a967d0" points="239.4,-504.07 230.29,-498.67 234.05,-508.58 239.4,-504.07"/>
</g>
<!-- src/util.ts -->
<g id="node11" class="node">
<title>src/util.ts</title>
<polygon fill="none" stroke="black" points="680.5,-462.5 680.5,-498.5 739.5,-498.5 739.5,-462.5 680.5,-462.5"/>
<text text-anchor="middle" x="710" y="-476.8" font-family="Times,serif" font-size="14.00">util.ts</text>
</g>
<!-- src/state.ts&#45;&gt;src/util.ts -->
<g id="edge11" class="edge">
<title>src/state.ts&#45;&gt;src/util.ts</title>
<path fill="none" stroke="#a967d0" d="M315.65,-544.41C325.4,-541.83 336.02,-539.42 346,-538 364.15,-535.41 659.83,-538.66 676,-530 685.28,-525.03 692.58,-516.27 698,-507.55"/>
<polygon fill="#a967d0" stroke="#a967d0" points="701.15,-509.08 702.96,-498.64 695.04,-505.67 701.15,-509.08"/>
</g>
<!-- src/dataset/dataset.ts -->
<g id="node12" class="node">
<title>src/dataset/dataset.ts</title>
<polygon fill="none" stroke="black" points="50,-462.5 50,-498.5 138,-498.5 138,-462.5 50,-462.5"/>
<text text-anchor="middle" x="94" y="-476.8" font-family="Times,serif" font-size="14.00">dataset.ts</text>
</g>
<!-- src/dataset/index.ts&#45;&gt;src/dataset/dataset.ts -->
<g id="edge12" class="edge">
<title>src/dataset/index.ts&#45;&gt;src/dataset/dataset.ts</title>
<path fill="none" stroke="#ac0f9f" d="M68.75,-611.29C55.78,-602.32 42.11,-590.07 35,-575 27.98,-560.13 28.54,-553.12 35,-538 40.41,-525.32 50.22,-514.12 60.31,-505.11"/>
<polygon fill="#ac0f9f" stroke="#ac0f9f" points="62.6,-507.76 68.01,-498.66 58.1,-502.4 62.6,-507.76"/>
</g>
<!-- src/dataset/serializer.ts -->
<g id="node13" class="node">
<title>src/dataset/serializer.ts</title>
<polygon fill="none" stroke="black" points="44,-538.5 44,-574.5 144,-574.5 144,-538.5 44,-538.5"/>
<text text-anchor="middle" x="94" y="-552.8" font-family="Times,serif" font-size="14.00">serializer.ts</text>
</g>
<!-- src/dataset/index.ts&#45;&gt;src/dataset/serializer.ts -->
<g id="edge13" class="edge">
<title>src/dataset/index.ts&#45;&gt;src/dataset/serializer.ts</title>
<path fill="none" stroke="#ac0f9f" d="M98.55,-611.31C97.87,-603.29 97.05,-593.55 96.29,-584.57"/>
<polygon fill="#ac0f9f" stroke="#ac0f9f" points="99.77,-584.2 95.44,-574.53 92.79,-584.79 99.77,-584.2"/>
</g>
<!-- src/DataView.tsx&#45;&gt;src/state.ts -->
<g id="edge41" class="edge">
<title>src/DataView.tsx&#45;&gt;src/state.ts</title>
<path fill="none" stroke="#c81c09" d="M231.49,-611.31C239.43,-602.5 249.24,-591.63 257.95,-581.96"/>
<polygon fill="#c81c09" stroke="#c81c09" points="260.55,-584.3 264.65,-574.53 255.35,-579.61 260.55,-584.3"/>
</g>
<!-- src/DataView.tsx&#45;&gt;src/spreadsheet/index.ts -->
<g id="edge40" class="edge">
<title>src/DataView.tsx&#45;&gt;src/spreadsheet/index.ts</title>
<path fill="none" stroke="#c81c09" d="M216,-611.35C216,-586.12 216,-538.76 216,-508.74"/>
<polygon fill="#c81c09" stroke="#c81c09" points="219.5,-508.54 216,-498.54 212.5,-508.54 219.5,-508.54"/>
</g>
<!-- src/spreadsheet/SpreadSheet.tsx -->
<g id="node14" class="node">
<title>src/spreadsheet/SpreadSheet.tsx</title>
<polygon fill="none" stroke="black" points="327.5,-389.5 327.5,-425.5 462.5,-425.5 462.5,-389.5 327.5,-389.5"/>
<text text-anchor="middle" x="395" y="-403.8" font-family="Times,serif" font-size="14.00">SpreadSheet.tsx</text>
</g>
<!-- src/spreadsheet/index.ts&#45;&gt;src/spreadsheet/SpreadSheet.tsx -->
<g id="edge15" class="edge">
<title>src/spreadsheet/index.ts&#45;&gt;src/spreadsheet/SpreadSheet.tsx</title>
<path fill="none" stroke="#cbe256" d="M241.5,-462.35C246.52,-459.35 251.84,-456.41 257,-454 277.81,-444.27 301.27,-435.7 322.87,-428.71"/>
<polygon fill="#cbe256" stroke="#cbe256" points="324.17,-431.97 332.65,-425.6 322.06,-425.29 324.17,-431.97"/>
</g>
<!-- src/spreadsheet/model.ts -->
<g id="node15" class="node">
<title>src/spreadsheet/model.ts</title>
<polygon fill="none" stroke="black" points="356,-24.5 356,-60.5 434,-60.5 434,-24.5 356,-24.5"/>
<text text-anchor="middle" x="395" y="-38.8" font-family="Times,serif" font-size="14.00">model.ts</text>
</g>
<!-- src/spreadsheet/index.ts&#45;&gt;src/spreadsheet/model.ts -->
<g id="edge16" class="edge">
<title>src/spreadsheet/index.ts&#45;&gt;src/spreadsheet/model.ts</title>
<path fill="none" stroke="#cbe256" d="M206.49,-462.36C192.76,-435.95 169,-383.36 169,-335.5 169,-335.5 169,-335.5 169,-187.5 169,-146.73 156.41,-127.02 184,-97 205.61,-73.49 290.63,-57.71 345.93,-49.69"/>
<polygon fill="#cbe256" stroke="#cbe256" points="346.47,-53.15 355.88,-48.29 345.49,-46.22 346.47,-53.15"/>
</g>
<!-- src/dataset/serializer.ts&#45;&gt;src/spreadsheet/index.ts -->
<g id="edge38" class="edge">
<title>src/dataset/serializer.ts&#45;&gt;src/spreadsheet/index.ts</title>
<path fill="none" stroke="#3194ae" d="M139.78,-538.45C145.36,-535.86 150.89,-533.03 156,-530 167.82,-522.99 179.8,-513.82 189.92,-505.33"/>
<polygon fill="#3194ae" stroke="#3194ae" points="192.29,-507.9 197.59,-498.73 187.73,-502.6 192.29,-507.9"/>
</g>
<!-- src/dataset/serializer.ts&#45;&gt;src/dataset/dataset.ts -->
<g id="edge39" class="edge">
<title>src/dataset/serializer.ts&#45;&gt;src/dataset/dataset.ts</title>
<path fill="none" stroke="#3194ae" d="M94,-538.34C94,-529.56 94,-518.66 94,-508.77"/>
<polygon fill="#3194ae" stroke="#3194ae" points="97.5,-508.57 94,-498.57 90.5,-508.57 97.5,-508.57"/>
</g>
<!-- src/spreadsheet/SpreadSheet.tsx&#45;&gt;src/state.ts -->
<g id="edge22" class="edge">
<title>src/spreadsheet/SpreadSheet.tsx&#45;&gt;src/state.ts</title>
<path fill="none" stroke="#b3125e" d="M462.77,-412.45C560.25,-418.84 730.43,-432.89 749,-454 771.31,-479.36 772.65,-505.88 749,-530 741.16,-538 357.09,-536.44 346,-538 339.3,-538.94 332.3,-540.33 325.47,-541.93"/>
<polygon fill="#b3125e" stroke="#b3125e" points="324.5,-538.56 315.65,-544.38 326.2,-545.36 324.5,-538.56"/>
</g>
<!-- src/spreadsheet/SpreadSheet.tsx&#45;&gt;src/spreadsheet/model.ts -->
<g id="edge17" class="edge">
<title>src/spreadsheet/SpreadSheet.tsx&#45;&gt;src/spreadsheet/model.ts</title>
<path fill="none" stroke="#b3125e" d="M462.63,-399.51C542.02,-387.12 663,-353.35 663,-262.5 663,-262.5 663,-262.5 663,-187.5 663,-89.31 521.67,-57.79 444.28,-47.89"/>
<polygon fill="#b3125e" stroke="#b3125e" points="444.6,-44.41 434.26,-46.68 443.77,-51.35 444.6,-44.41"/>
</g>
<!-- src/spreadsheet/Cell.tsx -->
<g id="node16" class="node">
<title>src/spreadsheet/Cell.tsx</title>
<polygon fill="none" stroke="black" points="399.5,-316.5 399.5,-352.5 470.5,-352.5 470.5,-316.5 399.5,-316.5"/>
<text text-anchor="middle" x="435" y="-330.8" font-family="Times,serif" font-size="14.00">Cell.tsx</text>
</g>
<!-- src/spreadsheet/SpreadSheet.tsx&#45;&gt;src/spreadsheet/Cell.tsx -->
<g id="edge18" class="edge">
<title>src/spreadsheet/SpreadSheet.tsx&#45;&gt;src/spreadsheet/Cell.tsx</title>
<path fill="none" stroke="#b3125e" d="M404.68,-389.31C409.4,-380.94 415.17,-370.7 420.41,-361.4"/>
<polygon fill="#b3125e" stroke="#b3125e" points="423.55,-362.96 425.41,-352.53 417.45,-359.52 423.55,-362.96"/>
</g>
<!-- src/spreadsheet/CellEditor.tsx -->
<g id="node17" class="node">
<title>src/spreadsheet/CellEditor.tsx</title>
<polygon fill="none" stroke="black" points="223,-243.5 223,-279.5 337,-279.5 337,-243.5 223,-243.5"/>
<text text-anchor="middle" x="280" y="-257.8" font-family="Times,serif" font-size="14.00">CellEditor.tsx</text>
</g>
<!-- src/spreadsheet/SpreadSheet.tsx&#45;&gt;src/spreadsheet/CellEditor.tsx -->
<g id="edge19" class="edge">
<title>src/spreadsheet/SpreadSheet.tsx&#45;&gt;src/spreadsheet/CellEditor.tsx</title>
<path fill="none" stroke="#b3125e" d="M380.63,-389.23C371.98,-378.79 360.79,-365.19 351,-353 333.48,-331.19 313.88,-306.15 299.71,-287.95"/>
<polygon fill="#b3125e" stroke="#b3125e" points="302.13,-285.35 293.23,-279.61 296.6,-289.65 302.13,-285.35"/>
</g>
<!-- src/spreadsheet/SelectionRect.tsx -->
<g id="node18" class="node">
<title>src/spreadsheet/SelectionRect.tsx</title>
<polygon fill="none" stroke="black" points="502.5,-170.5 502.5,-206.5 643.5,-206.5 643.5,-170.5 502.5,-170.5"/>
<text text-anchor="middle" x="573" y="-184.8" font-family="Times,serif" font-size="14.00">SelectionRect.tsx</text>
</g>
<!-- src/spreadsheet/SpreadSheet.tsx&#45;&gt;src/spreadsheet/SelectionRect.tsx -->
<g id="edge20" class="edge">
<title>src/spreadsheet/SpreadSheet.tsx&#45;&gt;src/spreadsheet/SelectionRect.tsx</title>
<path fill="none" stroke="#b3125e" d="M430.49,-389.35C446.93,-380.19 465.9,-367.74 480,-353 519.44,-311.76 548.37,-250.64 562.76,-215.99"/>
<polygon fill="#b3125e" stroke="#b3125e" points="566.08,-217.13 566.59,-206.55 559.59,-214.5 566.08,-217.13"/>
</g>
<!-- src/spreadsheet/reduceSpreadSheet.ts -->
<g id="node19" class="node">
<title>src/spreadsheet/reduceSpreadSheet.ts</title>
<polygon fill="none" stroke="black" points="268,-170.5 268,-206.5 444,-206.5 444,-170.5 268,-170.5"/>
<text text-anchor="middle" x="356" y="-184.8" font-family="Times,serif" font-size="14.00">reduceSpreadSheet.ts</text>
</g>
<!-- src/spreadsheet/SpreadSheet.tsx&#45;&gt;src/spreadsheet/reduceSpreadSheet.ts -->
<g id="edge21" class="edge">
<title>src/spreadsheet/SpreadSheet.tsx&#45;&gt;src/spreadsheet/reduceSpreadSheet.ts</title>
<path fill="none" stroke="#b3125e" d="M390.67,-389.42C384.65,-365.21 373.75,-319.47 367,-280 363.38,-258.84 360.51,-234.7 358.61,-216.68"/>
<polygon fill="#b3125e" stroke="#b3125e" points="362.08,-216.18 357.58,-206.58 355.11,-216.89 362.08,-216.18"/>
</g>
<!-- src/spreadsheet/contexts.ts -->
<g id="node20" class="node">
<title>src/spreadsheet/contexts.ts</title>
<polygon fill="none" stroke="black" points="208.5,-97.5 208.5,-133.5 303.5,-133.5 303.5,-97.5 208.5,-97.5"/>
<text text-anchor="middle" x="256" y="-111.8" font-family="Times,serif" font-size="14.00">contexts.ts</text>
</g>
<!-- src/spreadsheet/SpreadSheet.tsx&#45;&gt;src/spreadsheet/contexts.ts -->
<g id="edge23" class="edge">
<title>src/spreadsheet/SpreadSheet.tsx&#45;&gt;src/spreadsheet/contexts.ts</title>
<path fill="none" stroke="#b3125e" d="M349.69,-389.42C305.96,-370.21 242.35,-334.4 214,-280 190.48,-234.86 218.2,-175.72 238.46,-142.35"/>
<polygon fill="#b3125e" stroke="#b3125e" points="241.57,-143.98 243.93,-133.65 235.65,-140.25 241.57,-143.98"/>
</g>
<!-- src/spreadsheet/Cell.tsx&#45;&gt;src/spreadsheet/model.ts -->
<g id="edge24" class="edge">
<title>src/spreadsheet/Cell.tsx&#45;&gt;src/spreadsheet/model.ts</title>
<path fill="none" stroke="#919cfa" d="M468.48,-316.47C482.14,-307.61 496.46,-295.38 504,-280 511.24,-265.23 506.22,-259.29 504,-243 501.76,-226.55 498.27,-223.05 494,-207 481.03,-158.25 493.95,-139 466,-97 458.02,-85.01 446.42,-74.65 434.9,-66.32"/>
<polygon fill="#919cfa" stroke="#919cfa" points="436.81,-63.39 426.58,-60.63 432.85,-69.16 436.81,-63.39"/>
</g>
<!-- src/spreadsheet/visualizers.tsx -->
<g id="node21" class="node">
<title>src/spreadsheet/visualizers.tsx</title>
<polygon fill="none" stroke="black" points="375.5,-243.5 375.5,-279.5 494.5,-279.5 494.5,-243.5 375.5,-243.5"/>
<text text-anchor="middle" x="435" y="-257.8" font-family="Times,serif" font-size="14.00">visualizers.tsx</text>
</g>
<!-- src/spreadsheet/Cell.tsx&#45;&gt;src/spreadsheet/visualizers.tsx -->
<g id="edge25" class="edge">
<title>src/spreadsheet/Cell.tsx&#45;&gt;src/spreadsheet/visualizers.tsx</title>
<path fill="none" stroke="#919cfa" d="M435,-316.31C435,-308.29 435,-298.55 435,-289.57"/>
<polygon fill="#919cfa" stroke="#919cfa" points="438.5,-289.53 435,-279.53 431.5,-289.53 438.5,-289.53"/>
</g>
<!-- src/spreadsheet/CellEditor.tsx&#45;&gt;src/spreadsheet/model.ts -->
<g id="edge34" class="edge">
<title>src/spreadsheet/CellEditor.tsx&#45;&gt;src/spreadsheet/model.ts</title>
<path fill="none" stroke="#7e8546" d="M259.8,-243.27C225.62,-212.03 163.5,-144.87 200,-97 217.61,-73.91 293.92,-58.31 345.7,-50.18"/>
<polygon fill="#7e8546" stroke="#7e8546" points="346.34,-53.62 355.7,-48.65 345.28,-46.7 346.34,-53.62"/>
</g>
<!-- src/spreadsheet/CellEditor.tsx&#45;&gt;src/spreadsheet/reduceSpreadSheet.ts -->
<g id="edge35" class="edge">
<title>src/spreadsheet/CellEditor.tsx&#45;&gt;src/spreadsheet/reduceSpreadSheet.ts</title>
<path fill="none" stroke="#7e8546" d="M298.4,-243.31C308.01,-234.33 319.93,-223.19 330.43,-213.39"/>
<polygon fill="#7e8546" stroke="#7e8546" points="332.85,-215.91 337.77,-206.53 328.08,-210.8 332.85,-215.91"/>
</g>
<!-- src/spreadsheet/CellEditor.tsx&#45;&gt;src/spreadsheet/contexts.ts -->
<g id="edge36" class="edge">
<title>src/spreadsheet/CellEditor.tsx&#45;&gt;src/spreadsheet/contexts.ts</title>
<path fill="none" stroke="#7e8546" d="M264.39,-243.09C256.62,-233.24 248.05,-220.28 244,-207 237.63,-186.12 241.59,-161.51 246.6,-143.23"/>
<polygon fill="#7e8546" stroke="#7e8546" points="249.99,-144.12 249.53,-133.53 243.29,-142.1 249.99,-144.12"/>
</g>
<!-- src/spreadsheet/SelectionRect.tsx&#45;&gt;src/spreadsheet/model.ts -->
<g id="edge37" class="edge">
<title>src/spreadsheet/SelectionRect.tsx&#45;&gt;src/spreadsheet/model.ts</title>
<path fill="none" stroke="#c8ad50" d="M560.43,-170.24C545.62,-150.76 519.55,-118.93 492,-97 476.77,-84.87 458.41,-73.97 441.78,-65.22"/>
<polygon fill="#c8ad50" stroke="#c8ad50" points="443.25,-62.04 432.75,-60.58 440.05,-68.26 443.25,-62.04"/>
</g>
<!-- src/spreadsheet/reduceSpreadSheet.ts&#45;&gt;src/spreadsheet/model.ts -->
<g id="edge30" class="edge">
<title>src/spreadsheet/reduceSpreadSheet.ts&#45;&gt;src/spreadsheet/model.ts</title>
<path fill="none" stroke="#71ccc7" d="M344.93,-170.2C334.48,-151.52 321.93,-121.17 333,-97 338.42,-85.17 347.89,-74.96 357.82,-66.72"/>
<polygon fill="#71ccc7" stroke="#71ccc7" points="360.04,-69.43 365.81,-60.55 355.76,-63.89 360.04,-69.43"/>
</g>
<!-- src/spreadsheet/reduceSpreadSheet.ts&#45;&gt;src/spreadsheet/contexts.ts -->
<g id="edge29" class="edge">
<title>src/spreadsheet/reduceSpreadSheet.ts&#45;&gt;src/spreadsheet/contexts.ts</title>
<path fill="none" stroke="#71ccc7" d="M326.19,-170.49C312.19,-161.25 295.74,-149.69 282.22,-139.64"/>
<polygon fill="#71ccc7" stroke="#71ccc7" points="284.32,-136.84 274.23,-133.61 280.11,-142.43 284.32,-136.84"/>
</g>
<!-- src/spreadsheet/validators.ts -->
<g id="node22" class="node">
<title>src/spreadsheet/validators.ts</title>
<polygon fill="none" stroke="black" points="342,-97.5 342,-133.5 448,-133.5 448,-97.5 342,-97.5"/>
<text text-anchor="middle" x="395" y="-111.8" font-family="Times,serif" font-size="14.00">validators.ts</text>
</g>
<!-- src/spreadsheet/reduceSpreadSheet.ts&#45;&gt;src/spreadsheet/validators.ts -->
<g id="edge31" class="edge">
<title>src/spreadsheet/reduceSpreadSheet.ts&#45;&gt;src/spreadsheet/validators.ts</title>
<path fill="none" stroke="#71ccc7" d="M365.44,-170.31C370.04,-161.94 375.67,-151.7 380.77,-142.4"/>
<polygon fill="#71ccc7" stroke="#71ccc7" points="383.9,-143.98 385.65,-133.53 377.76,-140.61 383.9,-143.98"/>
</g>
<!-- src/spreadsheet/contexts.ts&#45;&gt;src/spreadsheet/model.ts -->
<g id="edge32" class="edge">
<title>src/spreadsheet/contexts.ts&#45;&gt;src/spreadsheet/model.ts</title>
<path fill="none" stroke="#5499b6" d="M289.29,-97.49C308.24,-87.82 332.16,-75.6 352.46,-65.23"/>
<polygon fill="#5499b6" stroke="#5499b6" points="354.18,-68.28 361.5,-60.61 351,-62.05 354.18,-68.28"/>
</g>
<!-- src/spreadsheet/contexts.ts&#45;&gt;src/spreadsheet/reduceSpreadSheet.ts -->
<g id="edge33" class="edge">
<title>src/spreadsheet/contexts.ts&#45;&gt;src/spreadsheet/reduceSpreadSheet.ts</title>
<path fill="none" stroke="#5499b6" d="M285.85,-133.53C299.67,-142.66 315.9,-154.05 329.31,-164.01"/>
<polygon fill="#5499b6" stroke="#5499b6" points="327.58,-167.09 337.67,-170.31 331.79,-161.5 327.58,-167.09"/>
</g>
<!-- src/spreadsheet/visualizers.tsx&#45;&gt;src/spreadsheet/model.ts -->
<g id="edge26" class="edge">
<title>src/spreadsheet/visualizers.tsx&#45;&gt;src/spreadsheet/model.ts</title>
<path fill="none" stroke="#d5022c" d="M443.15,-243.37C456.56,-212.57 479.66,-146.48 457,-97 451.58,-85.17 442.11,-74.96 432.18,-66.72"/>
<polygon fill="#d5022c" stroke="#d5022c" points="434.24,-63.89 424.19,-60.55 429.96,-69.43 434.24,-63.89"/>
</g>
<!-- src/spreadsheet/visualizers.tsx&#45;&gt;src/spreadsheet/reduceSpreadSheet.ts -->
<g id="edge27" class="edge">
<title>src/spreadsheet/visualizers.tsx&#45;&gt;src/spreadsheet/reduceSpreadSheet.ts</title>
<path fill="none" stroke="#d5022c" d="M415.88,-243.31C405.88,-234.33 393.49,-223.19 382.58,-213.39"/>
<polygon fill="#d5022c" stroke="#d5022c" points="384.72,-210.61 374.95,-206.53 380.05,-215.82 384.72,-210.61"/>
</g>
<!-- src/spreadsheet/visualizers.tsx&#45;&gt;src/spreadsheet/contexts.ts -->
<g id="edge28" class="edge">
<title>src/spreadsheet/visualizers.tsx&#45;&gt;src/spreadsheet/contexts.ts</title>
<path fill="none" stroke="#d5022c" d="M375.12,-245.95C327.05,-233.68 266.39,-216.63 259,-207 245.37,-189.24 245.98,-163.23 249.2,-143.65"/>
<polygon fill="#d5022c" stroke="#d5022c" points="252.64,-144.29 251.12,-133.8 245.77,-142.95 252.64,-144.29"/>
</g>
</g>
</svg>
